# Blender v2.92.0 OBJ File: ''
# www.blender.org
mtllib grass.mtl
o diffusegrass_-_Copy.020
v 0.261518 -0.050203 -0.077079
v 0.284726 0.269059 -0.006114
v 0.284726 0.269059 -0.006114
v 0.327009 -0.050372 -0.100133
v 0.350914 0.277037 -0.031942
v 0.350914 0.277037 -0.031942
v 0.376822 0.528070 -0.010557
v 0.311464 0.522280 0.014096
v -0.036741 -0.032823 -0.082517
v 0.021953 -0.032739 -0.069784
v -0.065939 0.481097 0.143690
v -0.005313 0.484846 0.149465
v -0.055045 0.305960 0.039808
v -0.055045 0.305960 0.039808
v 0.005480 0.292158 0.059451
v 0.005480 0.292158 0.059451
v -0.089199 -0.061004 -0.199402
v -0.059307 0.344484 -0.087945
v -0.059307 0.344484 -0.087945
v -0.028156 -0.046111 -0.217519
v -0.000032 0.363913 -0.106080
v -0.000032 0.363913 -0.106080
v -0.000652 0.544767 -0.018694
v -0.060726 0.506860 -0.003746
v -0.047506 -0.059377 -0.063624
v -0.107679 0.271180 -0.161150
v -0.107679 0.271180 -0.161150
v 0.016194 -0.055946 -0.091573
v -0.044355 0.277306 -0.189294
v -0.044355 0.277306 -0.189294
v -0.058775 0.494278 -0.269690
v -0.112869 0.449497 -0.245510
v 0.112174 -0.066917 -0.295648
v 0.095972 0.338895 -0.303453
v 0.095972 0.338895 -0.303453
v 0.156266 -0.064023 -0.269320
v 0.140080 0.342120 -0.276969
v 0.140080 0.342120 -0.276969
v 0.129644 0.624674 -0.283061
v 0.084262 0.632522 -0.318007
v -0.122296 -0.102063 -0.015508
v -0.098936 0.259464 -0.105616
v -0.098936 0.259464 -0.105616
v -0.057690 -0.106051 -0.014576
v -0.034159 0.254127 -0.103976
v -0.034159 0.254127 -0.103976
v 0.007753 0.442606 -0.150611
v -0.041397 0.378395 -0.162056
v -0.092136 -0.003856 0.152240
v -0.036765 0.305542 0.268049
v -0.036765 0.305542 0.268049
v -0.039499 0.000064 0.109558
v 0.015512 0.292678 0.236142
v 0.015512 0.292678 0.236142
v 0.057327 0.467440 0.322358
v 0.004896 0.466629 0.365282
v 0.036311 -0.075313 -0.102291
v 0.026927 0.330502 -0.137902
v 0.026927 0.330502 -0.137902
v 0.102877 -0.073604 -0.109414
v 0.093041 0.330141 -0.143546
v 0.093041 0.330141 -0.143546
v 0.092272 0.587071 -0.153114
v 0.019677 0.585476 -0.148972
v -0.016068 -0.065241 0.009116
v -0.017756 0.291986 -0.038512
v -0.017756 0.291986 -0.038512
v 0.050836 -0.066207 -0.002369
v 0.049516 0.288725 -0.049416
v 0.049516 0.288725 -0.049416
v 0.058716 0.516039 -0.065251
v -0.004856 0.504894 -0.057745
v -0.127249 -0.055284 -0.187552
v -0.101798 0.333191 -0.105326
v -0.101798 0.333191 -0.105326
v -0.083152 -0.046017 -0.234316
v -0.058793 0.345982 -0.154378
v -0.058793 0.345982 -0.154378
v -0.026108 0.540841 -0.057477
v -0.068524 0.526832 -0.005427
v -0.119931 -0.142858 -0.041967
v -0.180460 0.231609 -0.138707
v -0.180460 0.231609 -0.138707
v -0.068248 -0.144733 -0.085527
v -0.126690 0.223830 -0.182486
v -0.126690 0.223830 -0.182486
v -0.149264 0.470383 -0.260907
v -0.200016 0.485744 -0.223179
v 0.108339 -0.025445 0.013219
v 0.031491 0.291328 0.006472
v 0.031491 0.291328 0.006472
v 0.145494 -0.021593 -0.037334
v 0.068140 0.307531 -0.052834
v 0.068140 0.307531 -0.052834
v 0.032004 0.530430 -0.060335
v -0.008604 0.531800 -0.015702
v 0.172391 -0.028759 0.030846
v 0.070034 0.290997 0.152017
v 0.070034 0.290997 0.152017
v 0.201074 -0.027500 0.064190
v 0.098714 0.292455 0.185361
v 0.098714 0.292455 0.185361
v 0.021132 0.526829 0.243294
v -0.007547 0.525385 0.209949
v 0.032511 -0.091311 0.261851
v 0.042605 0.226655 0.186039
v 0.042605 0.226655 0.186039
v 0.099311 -0.095121 0.250659
v 0.109709 0.220398 0.176223
v 0.109709 0.220398 0.176223
v 0.116016 0.426133 0.132377
v 0.049207 0.430489 0.143519
v 0.104337 -0.068865 -0.077726
v 0.124415 0.279016 -0.110479
v 0.124415 0.279016 -0.110479
v 0.159883 -0.069645 -0.061039
v 0.181508 0.268409 -0.087059
v 0.181508 0.268409 -0.087059
v 0.194319 0.469449 -0.082838
v 0.137537 0.473984 -0.101698
v -0.188195 -0.076433 -0.036595
v -0.185065 0.248303 0.059085
v -0.185065 0.248303 0.059085
v -0.152280 -0.069983 -0.086340
v -0.150851 0.260229 0.003368
v -0.150851 0.260229 0.003368
v -0.145614 0.493598 0.029823
v -0.181731 0.476115 0.090638
v 0.119215 -0.044011 0.206862
v 0.141555 0.267471 0.294460
v 0.141555 0.267471 0.294460
v 0.184347 -0.046586 0.206330
v 0.208331 0.255269 0.298854
v 0.208331 0.255269 0.298854
v 0.220030 0.456697 0.359532
v 0.154900 0.460273 0.360131
v 0.003196 -0.087529 0.381764
v 0.120630 0.230941 0.262584
v 0.120630 0.230941 0.262584
v 0.037341 -0.085130 0.413123
v 0.154757 0.233916 0.293408
v 0.154757 0.233916 0.293408
v 0.214609 0.454930 0.220215
v 0.180570 0.448030 0.192022
v 0.235281 0.018419 -0.236915
v 0.223490 0.352967 -0.098855
v 0.223490 0.352967 -0.098855
v 0.296883 0.021380 -0.228697
v 0.287518 0.352174 -0.088411
v 0.287518 0.352174 -0.088411
v 0.277316 0.548847 0.005082
v 0.216393 0.537295 0.003043
v 0.276691 0.025780 -0.034090
v 0.241925 0.312873 0.054271
v 0.241925 0.312873 0.054271
v 0.319694 0.029770 -0.007089
v 0.284523 0.311370 0.083228
v 0.284523 0.311370 0.083228
v 0.250017 0.540265 0.112054
v 0.209640 0.542398 0.081210
v 0.226642 0.083408 0.030158
v 0.179459 0.384333 0.173900
v 0.179459 0.384333 0.173900
v 0.280424 0.087802 0.048895
v 0.233258 0.387348 0.192441
v 0.233258 0.387348 0.192441
v 0.193109 0.607774 0.272192
v 0.139377 0.602523 0.253519
v 0.221400 -0.050329 0.220592
v 0.263452 0.231187 0.073044
v 0.263452 0.231187 0.073044
v 0.280885 -0.049818 0.232178
v 0.322761 0.233500 0.083659
v 0.322761 0.233500 0.083659
v 0.349307 0.471139 -0.037372
v 0.290799 0.462488 -0.043789
v 0.202720 -0.007277 0.087626
v 0.236718 0.294441 0.237246
v 0.236718 0.294441 0.237246
v 0.268738 -0.009540 0.083582
v 0.302734 0.291642 0.233150
v 0.302734 0.291642 0.233150
v 0.317094 0.515887 0.315234
v 0.251079 0.518687 0.319330
v 0.004673 -0.030132 -0.263849
v 0.005128 0.354720 -0.251907
v 0.005128 0.354720 -0.251907
v 0.047910 -0.027649 -0.312355
v 0.045520 0.352415 -0.295792
v 0.045520 0.352415 -0.295792
v 0.063386 0.612025 -0.291646
v 0.020083 0.596922 -0.236148
v 0.179081 -0.135328 0.108203
v 0.104409 0.106987 -0.075347
v 0.104409 0.106987 -0.075347
v 0.243177 -0.136173 0.081014
v 0.168491 0.106502 -0.102587
v 0.168491 0.106502 -0.102587
v 0.127771 0.265737 -0.201881
v 0.063702 0.266076 -0.174580
vt 0.000000 0.619404
vt 1.000000 0.619404
vt 1.000000 1.000000
vt 0.000000 1.000000
vt 0.000000 0.000000
vt 1.000000 0.619404
vt 0.000000 0.619404
vt 0.000000 0.619404
vt 1.000000 0.619404
vt 1.000000 1.000000
vt 0.000000 1.000000
vt 0.000000 0.619404
vt 1.000000 0.619404
vt 1.000000 1.000000
vt 0.000000 1.000000
vt 0.000000 0.000000
vt 1.000000 0.000000
vt 1.000000 0.619404
vt 0.000000 0.619404
vt 0.000000 0.619404
vt 1.000000 0.619404
vt 1.000000 1.000000
vt 0.000000 1.000000
vt 0.000000 0.619404
vt 1.000000 0.619404
vt 1.000000 1.000000
vt 0.000000 1.000000
vt 0.000000 0.000000
vt 1.000000 0.000000
vt 1.000000 0.619404
vt 0.000000 0.619404
vt 0.000000 0.000000
vt 1.000000 0.000000
vt 1.000000 0.619404
vt 0.000000 0.619404
vt 0.000000 0.619404
vt 1.000000 0.619404
vt 1.000000 1.000000
vt 0.000000 1.000000
vt 0.000000 0.000000
vt 1.000000 0.000000
vt 1.000000 0.619404
vt 0.000000 0.619404
vt 0.000000 0.619404
vt 1.000000 0.619404
vt 1.000000 1.000000
vt 0.000000 1.000000
vt 0.000000 0.000000
vt 1.000000 0.000000
vt 1.000000 0.619404
vt 0.000000 0.619404
vt 0.000000 0.619404
vt 1.000000 0.619404
vt 1.000000 1.000000
vt 0.000000 1.000000
vt 0.000000 0.000000
vt 1.000000 0.000000
vt 1.000000 0.619404
vt 0.000000 0.619404
vt 0.000000 0.619404
vt 1.000000 0.619404
vt 1.000000 1.000000
vt 0.000000 1.000000
vt 0.000000 0.000000
vt 1.000000 0.000000
vt 1.000000 0.619404
vt 0.000000 0.619404
vt 0.000000 0.619404
vt 1.000000 0.619404
vt 1.000000 1.000000
vt 0.000000 1.000000
vt 0.000000 0.000000
vt 1.000000 0.000000
vt 1.000000 0.619404
vt 0.000000 0.619404
vt 0.000000 0.619404
vt 1.000000 0.619404
vt 1.000000 1.000000
vt 0.000000 1.000000
vt 0.000000 0.000000
vt 1.000000 0.000000
vt 1.000000 0.619404
vt 0.000000 0.619404
vt 0.000000 0.619404
vt 1.000000 0.619404
vt 1.000000 1.000000
vt 0.000000 1.000000
vt 0.000000 0.000000
vt 1.000000 0.000000
vt 1.000000 0.619404
vt 0.000000 0.619404
vt 0.000000 0.619404
vt 1.000000 0.619404
vt 1.000000 1.000000
vt 0.000000 1.000000
vt 0.000000 0.000000
vt 1.000000 0.000000
vt 1.000000 0.619404
vt 0.000000 0.619404
vt 0.000000 0.619404
vt 1.000000 0.619404
vt 1.000000 1.000000
vt 0.000000 1.000000
vt 0.000000 0.000000
vt 1.000000 0.000000
vt 1.000000 0.619404
vt 0.000000 0.619404
vt 0.000000 0.619404
vt 1.000000 0.619404
vt 1.000000 1.000000
vt 0.000000 1.000000
vt 0.000000 0.000000
vt 1.000000 0.000000
vt 1.000000 0.619404
vt 0.000000 0.619404
vt 0.000000 0.000000
vt 1.000000 0.000000
vt 1.000000 0.619404
vt 0.000000 0.619404
vt 0.000000 0.619404
vt 1.000000 0.619404
vt 1.000000 1.000000
vt 0.000000 1.000000
vt 0.000000 0.000000
vt 1.000000 0.000000
vt 1.000000 0.619404
vt 0.000000 0.619404
vt 0.000000 0.619404
vt 1.000000 0.619404
vt 1.000000 1.000000
vt 0.000000 1.000000
vt 0.000000 0.000000
vt 1.000000 0.000000
vt 1.000000 0.619404
vt 0.000000 0.619404
vt 0.000000 0.619404
vt 1.000000 0.619404
vt 1.000000 1.000000
vt 0.000000 1.000000
vt 0.000000 0.000000
vt 1.000000 0.000000
vt 1.000000 0.619404
vt 0.000000 0.619404
vt 0.000000 0.619404
vt 1.000000 0.619404
vt 1.000000 1.000000
vt 0.000000 1.000000
vt 1.000000 0.000000
vt 0.000000 0.619404
vt 1.000000 0.619404
vt 1.000000 1.000000
vt 0.000000 1.000000
vt 0.000000 0.000000
vt 1.000000 0.000000
vt 1.000000 0.619404
vt 0.000000 0.619404
vt 0.000000 0.619404
vt 1.000000 0.619404
vt 1.000000 1.000000
vt 0.000000 1.000000
vt 0.000000 0.000000
vt 1.000000 0.000000
vt 1.000000 0.619404
vt 0.000000 0.619404
vt 0.000000 0.619404
vt 1.000000 0.619404
vt 1.000000 1.000000
vt 0.000000 1.000000
vt 0.000000 0.000000
vt 1.000000 0.000000
vt 1.000000 0.619404
vt 0.000000 0.619404
vt 0.000000 0.619404
vt 1.000000 0.619404
vt 1.000000 1.000000
vt 0.000000 1.000000
vt 0.000000 0.000000
vt 1.000000 0.000000
vt 1.000000 0.619404
vt 0.000000 0.619404
vt 0.000000 0.619404
vt 1.000000 0.619404
vt 1.000000 1.000000
vt 0.000000 1.000000
vt 0.000000 0.000000
vt 1.000000 0.000000
vt 1.000000 0.619404
vt 0.000000 0.619404
vt 0.000000 0.000000
vt 1.000000 0.000000
vt 1.000000 0.619404
vt 0.000000 0.619404
vt 0.000000 0.619404
vt 1.000000 0.619404
vt 1.000000 1.000000
vt 0.000000 1.000000
vt 0.000000 0.000000
vt 1.000000 0.000000
vt 1.000000 0.619404
vt 0.000000 0.619404
vn -0.6928 -0.3807 0.6125
vn -0.6928 -0.3807 0.6124
vn -0.6156 0.4651 0.6362
vn -0.6156 0.4650 0.6362
vn 0.0435 -0.3459 0.9373
vn 0.3280 0.5588 0.7617
vn 0.3276 0.5590 0.7618
vn 0.3648 -0.2240 0.9038
vn 0.3689 -0.2247 0.9019
vn 0.3373 -0.2189 0.9156
vn 0.3330 -0.2180 0.9174
vn 0.3633 -0.1134 0.9248
vn 0.3618 -0.1128 0.9254
vn 0.3695 -0.1155 0.9220
vn 0.3710 -0.1160 0.9214
vn -0.2273 -0.4821 0.8461
vn -0.2098 -0.4865 0.8481
vn -0.2287 -0.4440 0.8664
vn -0.2563 -0.4409 0.8602
vn -0.2845 -0.3480 0.8933
vn -0.2905 -0.3397 0.8946
vn -0.2863 -0.3559 0.8896
vn -0.2835 -0.3660 0.8864
vn 0.3550 -0.2711 0.8947
vn 0.3566 -0.2711 0.8940
vn 0.3401 -0.2692 0.9010
vn 0.3382 -0.2691 0.9018
vn 0.4318 -0.4045 0.8062
vn 0.4381 -0.4045 0.8028
vn 0.4078 -0.4035 0.8191
vn 0.4006 -0.4033 0.8227
vn 0.3604 0.3232 0.8750
vn 0.3601 0.3234 0.8751
vn 0.3633 0.3229 0.8739
vn 0.3636 0.3227 0.8739
vn 0.1910 0.3922 0.8998
vn 0.1830 0.3945 0.9005
vn 0.2746 0.3776 0.8843
vn 0.2846 0.3762 0.8817
vn -0.5133 -0.0042 0.8582
vn -0.5132 -0.0043 0.8583
vn -0.5138 -0.0041 0.8579
vn -0.5137 -0.0040 0.8579
vn -0.5551 0.0071 0.8318
vn -0.5552 0.0020 0.8317
vn -0.5764 0.0087 0.8171
vn -0.5763 0.0113 0.8172
vn -0.0025 0.2415 0.9704
vn -0.0027 0.2410 0.9705
vn -0.0012 0.2415 0.9704
vn -0.0011 0.2419 0.9703
vn -0.2963 0.3938 0.8701
vn -0.3239 0.3518 0.8783
vn -0.3326 0.4122 0.8482
vn -0.4608 0.4971 0.7352
vn 0.4785 -0.4014 0.7810
vn 0.4691 -0.4128 0.7807
vn 0.5472 -0.4023 0.7340
vn 0.5579 -0.3951 0.7298
vn 0.4964 -0.5093 0.7030
vn 0.5026 -0.5133 0.6957
vn 0.4297 -0.5197 0.7384
vn 0.4280 -0.5129 0.7441
vn 0.0909 0.0879 0.9920
vn 0.0902 0.0872 0.9921
vn 0.0981 0.0875 0.9913
vn 0.0988 0.0883 0.9912
vn 0.0651 0.0422 0.9970
vn 0.0629 0.0416 0.9972
vn 0.0742 0.0405 0.9964
vn 0.0762 0.0411 0.9962
vn 0.1662 0.1307 0.9774
vn 0.1659 0.1306 0.9775
vn 0.1682 0.1305 0.9771
vn 0.1684 0.1307 0.9770
vn 0.1250 0.0748 0.9893
vn 0.1201 0.0743 0.9900
vn 0.1450 0.0692 0.9870
vn 0.1503 0.0695 0.9862
vn 0.7498 -0.1802 0.6367
vn 0.7506 -0.1808 0.6355
vn 0.7468 -0.1808 0.6400
vn 0.7460 -0.1801 0.6411
vn 0.7516 -0.3936 0.5293
vn 0.7515 -0.3947 0.5286
vn 0.7497 -0.3975 0.5291
vn 0.7499 -0.3963 0.5296
vn 0.6269 0.2882 0.7238
vn 0.6272 0.2885 0.7235
vn 0.6255 0.2898 0.7244
vn 0.6253 0.2895 0.7247
vn 0.6273 0.2883 0.7234
vn 0.6272 0.2886 0.7234
vn 0.6281 0.2879 0.7229
vn 0.6283 0.2875 0.7229
vn 0.7937 0.2059 0.5725
vn 0.7948 0.2068 0.5705
vn 0.7938 0.2115 0.5702
vn 0.7928 0.2112 0.5718
vn 0.7805 0.1686 0.6020
vn 0.7757 0.1775 0.6056
vn 0.7817 0.1626 0.6021
vn 0.7870 0.1515 0.5981
vn -0.6717 -0.4406 0.5955
vn -0.6714 -0.4406 0.5959
vn -0.6716 -0.4405 0.5958
vn 0.1651 0.2227 0.9608
vn 0.1647 0.2222 0.9610
vn 0.1696 0.2221 0.9602
vn 0.1701 0.2227 0.9599
vn 0.1692 0.1983 0.9654
vn 0.1699 0.1978 0.9654
vn 0.1645 0.1986 0.9662
vn 0.1638 0.1990 0.9662
vn -0.3232 0.0998 0.9411
vn -0.3246 0.0955 0.9410
vn -0.3274 0.1011 0.9394
vn -0.3263 0.1042 0.9395
vn -0.3526 -0.0068 0.9358
vn -0.3515 -0.0090 0.9362
vn -0.3461 -0.0089 0.9382
vn -0.3476 -0.0068 0.9376
vn 0.8343 -0.1549 0.5291
vn 0.8352 -0.1561 0.5273
vn 0.8361 -0.1560 0.5259
vn 0.8355 -0.1544 0.5273
vn 0.8616 -0.0792 0.5014
vn 0.8620 -0.0796 0.5007
vn 0.8627 -0.0789 0.4995
vn 0.8624 -0.0784 0.5001
vn -0.0726 -0.2715 0.9597
vn -0.0789 -0.2665 0.9606
vn -0.0489 -0.2816 0.9583
vn -0.0445 -0.2875 0.9567
vn -0.0568 -0.3079 0.9497
vn -0.0481 -0.3108 0.9493
vn -0.0730 -0.2933 0.9532
vn -0.0837 -0.2902 0.9533
vn -0.6160 0.4653 0.6356
vn -0.6160 0.4652 0.6357
vn -0.6161 0.4652 0.6357
vn -0.6342 0.3923 0.6663
vn -0.6343 0.3922 0.6662
vn -0.6337 0.3918 0.6670
vn -0.6336 0.3919 0.6671
vn -0.1329 -0.3844 0.9135
vn -0.1350 -0.3817 0.9144
vn -0.1258 -0.3878 0.9131
vn -0.1241 -0.3906 0.9122
vn -0.0382 -0.4714 0.8811
vn -0.0223 -0.4726 0.8810
vn -0.0704 -0.4430 0.8937
vn -0.0913 -0.4419 0.8924
vn -0.5070 -0.3142 0.8027
vn -0.5081 -0.3126 0.8026
vn -0.5195 -0.3138 0.7948
vn -0.5186 -0.3158 0.7945
vn -0.5745 -0.1812 0.7982
vn -0.5750 -0.1811 0.7979
vn -0.5862 -0.1809 0.7897
vn -0.5859 -0.1811 0.7899
vn -0.2646 -0.4495 0.8532
vn -0.2648 -0.4491 0.8533
vn -0.2647 -0.4499 0.8530
vn -0.2645 -0.4503 0.8528
vn -0.2781 -0.3730 0.8852
vn -0.2775 -0.3731 0.8853
vn -0.2775 -0.3721 0.8857
vn -0.2782 -0.3720 0.8856
vn -0.1725 0.4773 0.8617
vn -0.1726 0.4771 0.8617
vn -0.1721 0.4773 0.8617
vn -0.1722 0.4774 0.8616
vn -0.1684 0.4623 0.8706
vn -0.1688 0.4618 0.8708
vn -0.1693 0.4602 0.8715
vn -0.1690 0.4607 0.8713
vn 0.0374 -0.4475 0.8935
vn 0.0373 -0.4473 0.8936
vn 0.0384 -0.4478 0.8933
vn 0.0384 -0.4479 0.8932
vn 0.7405 -0.0227 0.6716
vn 0.7402 -0.0221 0.6720
vn 0.7420 -0.0236 0.6700
vn 0.7424 -0.0244 0.6696
vn 0.7692 -0.0800 0.6340
vn 0.7734 -0.0812 0.6287
vn 0.7670 -0.0733 0.6374
vn 0.7639 -0.0710 0.6414
vn 0.3080 0.6327 0.7105
vn 0.3085 0.6327 0.7103
usemtl grass
s off
f 98/1/1 101/2/1 103/3/1
f 98/1/2 103/3/2 104/4/2
f 137/5/3 142/6/4 139/7/3
f 178/8/5 181/9/5 183/10/5
f 178/8/5 183/10/5 184/11/5
f 195/12/6 198/13/6 199/14/6
f 195/12/7 199/14/7 200/15/7
s 1
f 1/16/8 4/17/9 5/18/10
f 1/16/8 5/18/10 2/19/11
f 3/20/12 6/21/13 7/22/14
f 3/20/12 7/22/14 8/23/15
f 14/24/16 16/25/17 12/26/18
f 14/24/16 12/26/18 11/27/19
f 9/28/20 10/29/21 15/30/22
f 9/28/20 15/30/22 13/31/23
f 17/32/24 20/33/25 21/34/26
f 17/32/24 21/34/26 18/35/27
f 19/36/28 22/37/29 23/38/30
f 19/36/28 23/38/30 24/39/31
f 25/40/32 28/41/33 30/42/34
f 25/40/32 30/42/34 27/43/35
f 26/44/36 29/45/37 31/46/38
f 26/44/36 31/46/38 32/47/39
f 33/48/40 36/49/41 38/50/42
f 33/48/40 38/50/42 35/51/43
f 34/52/44 37/53/45 39/54/46
f 34/52/44 39/54/46 40/55/47
f 41/56/48 44/57/49 46/58/50
f 41/56/48 46/58/50 43/59/51
f 42/60/52 45/61/53 47/62/54
f 42/60/52 47/62/54 48/63/55
f 49/64/56 52/65/57 54/66/58
f 49/64/56 54/66/58 51/67/59
f 50/68/60 53/69/61 55/70/62
f 50/68/60 55/70/62 56/71/63
f 57/72/64 60/73/65 62/74/66
f 57/72/64 62/74/66 59/75/67
f 58/76/68 61/77/69 63/78/70
f 58/76/68 63/78/70 64/79/71
f 65/80/72 68/81/73 70/82/74
f 65/80/72 70/82/74 67/83/75
f 66/84/76 69/85/77 71/86/78
f 66/84/76 71/86/78 72/87/79
f 73/88/80 76/89/81 77/90/82
f 73/88/80 77/90/82 74/91/83
f 75/92/84 78/93/85 79/94/86
f 75/92/84 79/94/86 80/95/87
f 81/96/88 84/97/89 85/98/90
f 81/96/88 85/98/90 82/99/91
f 83/100/92 86/101/93 87/102/94
f 83/100/92 87/102/94 88/103/95
f 89/104/96 92/105/97 94/106/98
f 89/104/96 94/106/98 91/107/99
f 90/108/100 93/109/101 95/110/102
f 90/108/100 95/110/102 96/111/103
f 97/112/104 100/113/104 102/114/105
f 97/112/104 102/114/105 99/115/106
f 105/116/107 108/117/108 110/118/109
f 105/116/107 110/118/109 107/119/110
f 106/120/111 109/121/112 111/122/113
f 106/120/111 111/122/113 112/123/114
f 113/124/115 116/125/116 118/126/117
f 113/124/115 118/126/117 115/127/118
f 114/128/119 117/129/120 119/130/121
f 114/128/119 119/130/121 120/131/122
f 121/132/123 124/133/124 125/134/125
f 121/132/123 125/134/125 122/135/126
f 123/136/127 126/137/128 127/138/129
f 123/136/127 127/138/129 128/139/130
f 129/140/131 132/141/132 133/142/133
f 129/140/131 133/142/133 130/143/134
f 131/144/135 134/145/136 135/146/137
f 131/144/135 135/146/137 136/147/138
f 137/5/139 140/148/140 142/6/141
f 138/149/142 141/150/143 143/151/144
f 138/149/142 143/151/144 144/152/145
f 145/153/146 148/154/147 149/155/148
f 145/153/146 149/155/148 146/156/149
f 147/157/150 150/158/151 151/159/152
f 147/157/150 151/159/152 152/160/153
f 153/161/154 156/162/155 158/163/156
f 153/161/154 158/163/156 155/164/157
f 154/165/158 157/166/159 159/167/160
f 154/165/158 159/167/160 160/168/161
f 161/169/162 164/170/163 166/171/164
f 161/169/162 166/171/164 163/172/165
f 162/173/166 165/174/167 167/175/168
f 162/173/166 167/175/168 168/176/169
f 169/177/170 172/178/171 174/179/172
f 169/177/170 174/179/172 171/180/173
f 170/181/174 173/182/175 175/183/176
f 170/181/174 175/183/176 176/184/177
f 177/185/178 180/186/179 182/187/180
f 177/185/178 182/187/180 179/188/181
f 185/189/182 188/190/183 189/191/184
f 185/189/182 189/191/184 186/192/185
f 187/193/186 190/194/187 191/195/188
f 187/193/186 191/195/188 192/196/189
f 193/197/190 196/198/190 197/199/191
f 193/197/190 197/199/191 194/200/191
